<svg xmlns="http://www.w3.org/2000/svg" height="800" width="1200" xml:space="preserve" y="0" x="0" id="ENGLISH" version="1.1" viewBox="-44.41005 -57.7505 384.8871 346.503"><style id="style3" type="text/css">.st1{fill:#fff}.st2{fill:#11437d}</style><g transform="matrix(.475 0 0 .475 -107.588 -78.422)" id="g5"><path id="path7" d="M245.9 494.8c7.2-9.2 17.8-22.3 30.9-36.6h47.3zm-10.3-169.4l6.1 3.6h49.7l2.7-1.8-47-27.7c-4.2 8.3-7.9 17-11.5 25.9m421.8 183c-2.8 5-7.2 13.3-10 21-.6 1.6-1.1 3.2-1.6 4.8l58.8 34.6c7.5-3.9 16.3-8.7 26.3-14.5.8-.4 1.5-.9 2.2-1.3zm132-79c-11.7-13-43.6-39.7-43.6-39.7s-35.5 24.9-62.6 38c0 0 23.5-22.1 31.8-29.6 11.6-10.6 45.6-43.5 45.6-43.5l-.6-.7-307.1 1 39.5-184.1c-16.5 4.7-40.4 12.4-66.4 23.9-5.1 2.3-10.1 4.6-14.9 6.9l-32.6 153.3h-99.9c-30.9 31.1-51 58.8-51 58.8l17.1 18.7h39.6c11.8-10.4 28.9-24.3 52.4-40.5l-5.9 15.8c-10 7.8-19.6 16.2-28.6 24.8h59.1l-22.4 101.3 27.3 27.2 1.9 2.2s18-3.1 40.6-8.8l27-121.8 353.1-1c.4-1.3.7-2 .6-2.2M655 507l-82.8-48.7h-55.5l110.9 65.2c12.3-6.9 21.9-12.9 27.4-16.5m36-246.1l-14.5-19.1L489.8 329h55.4zM243.4 366.2s5-4.5 13.5-11.3h-24.8c5.3 5 11.3 11.3 11.3 11.3" fill="#e63329"/><path id="path9" d="M294 327.1c12.3-8.5 26.1-17.3 40.4-25.2L268.3 263c-7.8 11.5-14.9 23.6-21.2 36.5z" class="st1" fill="#fff"/><path id="path11" d="M825.4 458.3L806 444s-6.2 6.1-15.3 14.3z" class="st1" fill="#fff"/><path id="path13" d="M737.5 329H628.4l84.4-39.4-21.8-28.7L545.2 329h-55.5l186.7-87.2-11.1 5.2-7.9-9.2L485.6 318l32.2-146.8c-2-3.9-3.1-6.1-3.1-6.1s-8.6 1.8-22.5 5.7l-39.5 184.1 307.1-1z" class="st1" fill="#fff"/><path id="path15" d="M241.6 329l-6.1-3.6c-3.2 7.9-6.2 15.9-9 24.2 1.4 1.1 3.4 3.1 5.6 5.2h24.8c8.5-6.9 20.3-16.1 34.4-25.9z" class="st1" fill="#fff"/><path id="path17" d="M436 546.5l16.3-77.2 130.3 77.1c4.7-2.1 9.5-4.3 14.4-6.7 11.2-5.4 21.6-11.1 30.6-16.2l-110.9-65.3h55.5l82.9 48.8c3.3-2.1 5.1-3.3 5.1-3.3s-1.1 1.8-2.7 4.7l75.7 44.5c4.8-2.8 9.3-5.6 13.8-8.5l-146.9-86.3h170.6c8.6-11.9 16.1-22.6 18.2-26.9l-353.1 1-27 121.8c8.5-2 17.9-4.6 27.2-7.5" class="st1" fill="#fff"/><path id="path19" d="M645.8 534.2c-4 12-6.5 24-6.5 24l35.3 24.9s10.8-4.3 30-14.3z" class="st1" fill="#fff"/><path id="path21" d="M361.6 318l-24.1-14.2c-1.2.8-24.3 17.1-52.5 44.6-2.2 2.2-4.4 4.3-6.5 6.5h99.8l32.5-153.4c-8.8 4.2-17.2 8.4-25.3 12.8z" class="st1" fill="#fff"/><path id="path23" d="M284.2 432.4h-39.6l18.7 20.5c-.1-.1 6.4-7.7 20.9-20.5" class="st1" fill="#fff"/><path id="path25" d="M311.5 543.3l21.4-15 2.5 2 3.3 3.3 22.4-101.3H302c-9.1 8.7-17.6 17.5-25.3 25.9h47.4l-78.2 36.6c-6.4 8.3-10.1 13.4-10.1 13.4l2.9 2.9 89.6-41.9z" class="st1" fill="#fff"/><path id="path27" d="M825.4 458.3h-34.7c-5.3 4.7-11.5 10.1-18.1 15.6-12.2 10-29.5 20.3-29.5 20.3 7-8.6 17.9-22.9 27.3-35.8H600l147 86.3c16.8-10.7 30.9-21.2 42.3-29.9 0 0-12.2 18.7-21.1 32.2 12.3 11.7 25.4 22.1 25.4 22.1l56.2-92.8z" class="st2" fill="#11437d"/><path id="path29" d="M517.8 171.1L485.6 318l171.8-80.3-6.6-7.7-53.9 27.6-23.4-43.4-65.4 28.6c8-8 12-11.3 31.6-23-8.2-20.9-17.3-39.5-21.9-48.7" class="st2" fill="#11437d"/><path id="path31" d="M334.4 302c.7.2 2.5 1.4 3.2 1.7l-.1.1 24.1 14.2 24-103.6c-31.1 16.7-57.5 34.8-80.4 55.3l-1.4-.7c5.7-10.7 22.2-28.2 40.9-44.8 17.4-15.4 41.5-28.8 41.5-28.8l4-24.1c-31.5 11.5-66.4 28.4-93.7 56.9-10.3 10.8-19.6 22.5-28.2 35z" class="st2" fill="#11437d"/><path id="polygon33" class="st2" fill="#11437d" d="M737.5 329L717 306l2.4-7.7-6.6-8.7-84.4 39.4z"/><path id="polygon35" class="st2" fill="#11437d" d="M238.7 511.2l48.5 49.1 24.3-17 16.7-74z"/><path id="path37" d="M437.2 546.1c29.6-9.5 56.3-23.4 56.3-23.4s5.8 6.5 11.3 13.9l23.7 30.4s24.7-7.5 54.1-20.6l-130.3-77.1-16.3 77.2c.4-.1.8-.2 1.2-.4" class="st2" fill="#11437d"/><path id="path39" d="M672.5 636.8c-.7 0 1.4-5.9.9-5.9-53.8-2-156.3-1.9-166.4-9.4-7.3-5.5 3.8-33.3 11.1-48.5 0 0-11.2-15.1-29.1-37-1.8 1.8-29.3 32.6-32.1 80.5-15 4.2-16.9 7.2-46.5 9.6-17.8 1.4-97.8 3.9-97.8 3.9l-4.4 4c-4.8.4-31.4 1.3-31.4 1.3s2.8 9 8.6 15.3c7.1.6 170.3 4.1 191.9-10 8.4 7.1 23.5 11 53.2 9.7 5.6-.2 101.7.9 113.2.8 40.6-.3 123.1-5.4 123.1-5.4l7.4-8.1c-8.9 0-52.4-.5-79.4-.5-7.5-.1-20.6-.1-22.3-.3" class="st2" fill="#11437d"/></g></svg>